<mxfile host="app.diagrams.net" modified="2021-08-24T10:57:04.989Z" agent="5.0 (Macintosh; Intel Mac OS X 10_15_7) AppleWebKit/537.36 (KHTML, like Gecko) Chrome/92.0.4515.159 Safari/537.36" etag="n0QrGH4NpM2w0g4Bk76V" version="14.9.8" type="github">
  <diagram id="cleOIJEO0d_tLQGh0W-h" name="Page-1">
    <mxGraphModel dx="2365" dy="1868" grid="1" gridSize="10" guides="1" tooltips="1" connect="1" arrows="1" fold="1" page="1" pageScale="1" pageWidth="827" pageHeight="1169" math="0" shadow="0">
      <root>
        <mxCell id="0" />
        <mxCell id="1" parent="0" />
        <mxCell id="LinHilYVjCiNJfZ3N-pZ-29" value="" style="ellipse;shape=cloud;whiteSpace=wrap;html=1;" vertex="1" parent="1">
          <mxGeometry x="-100" y="-170" width="1010" height="780" as="geometry" />
        </mxCell>
        <mxCell id="LinHilYVjCiNJfZ3N-pZ-2" value="API GATEWAY" style="verticalLabelPosition=top;verticalAlign=bottom;html=1;shape=mxgraph.basic.patternFillRect;fillStyle=hor;step=5;fillStrokeWidth=0.2;fillStrokeColor=#dddddd;labelPosition=right;align=left;spacing=-27;spacingTop=-8;spacingLeft=-95;fillColor=#d5e8d4;strokeColor=#82b366;" vertex="1" parent="1">
          <mxGeometry x="100" y="60" width="160" height="130" as="geometry" />
        </mxCell>
        <mxCell id="LinHilYVjCiNJfZ3N-pZ-3" value="Personalised Email Service" style="verticalLabelPosition=middle;verticalAlign=middle;html=1;shape=mxgraph.basic.rect;fillColor2=none;strokeWidth=1;size=20;indent=5;labelPosition=center;align=center;whiteSpace=wrap;" vertex="1" parent="1">
          <mxGeometry x="120" y="100" width="120" height="60" as="geometry" />
        </mxCell>
        <mxCell id="LinHilYVjCiNJfZ3N-pZ-4" value="API GATEWAY" style="verticalLabelPosition=top;verticalAlign=bottom;html=1;shape=mxgraph.basic.patternFillRect;fillStyle=hor;step=5;fillStrokeWidth=0.2;fillStrokeColor=#dddddd;labelPosition=right;align=left;spacing=-27;spacingTop=-8;spacingLeft=-95;fillColor=#d5e8d4;strokeColor=#82b366;" vertex="1" parent="1">
          <mxGeometry x="610" y="60" width="160" height="130" as="geometry" />
        </mxCell>
        <mxCell id="LinHilYVjCiNJfZ3N-pZ-5" value="Customer Data Service" style="verticalLabelPosition=middle;verticalAlign=middle;html=1;shape=mxgraph.basic.rect;fillColor2=none;strokeWidth=1;size=20;indent=5;labelPosition=center;align=center;whiteSpace=wrap;" vertex="1" parent="1">
          <mxGeometry x="630" y="100" width="120" height="60" as="geometry" />
        </mxCell>
        <mxCell id="LinHilYVjCiNJfZ3N-pZ-6" value="API GATEWAY" style="verticalLabelPosition=top;verticalAlign=bottom;html=1;shape=mxgraph.basic.patternFillRect;fillStyle=hor;step=5;fillStrokeWidth=0.2;fillStrokeColor=#dddddd;labelPosition=right;align=left;spacing=-27;spacingTop=-8;spacingLeft=-95;fillColor=#d5e8d4;strokeColor=#82b366;" vertex="1" parent="1">
          <mxGeometry x="100" y="300" width="160" height="130" as="geometry" />
        </mxCell>
        <mxCell id="LinHilYVjCiNJfZ3N-pZ-7" value="Promotion Service" style="verticalLabelPosition=middle;verticalAlign=middle;html=1;shape=mxgraph.basic.rect;fillColor2=none;strokeWidth=1;size=20;indent=5;labelPosition=center;align=center;whiteSpace=wrap;" vertex="1" parent="1">
          <mxGeometry x="120" y="350" width="120" height="60" as="geometry" />
        </mxCell>
        <mxCell id="LinHilYVjCiNJfZ3N-pZ-8" value="API GATEWAY" style="verticalLabelPosition=top;verticalAlign=bottom;html=1;shape=mxgraph.basic.patternFillRect;fillStyle=hor;step=5;fillStrokeWidth=0.2;fillStrokeColor=#dddddd;labelPosition=right;align=left;spacing=-27;spacingTop=-8;spacingLeft=-95;fillColor=#d5e8d4;strokeColor=#82b366;" vertex="1" parent="1">
          <mxGeometry x="610" y="315" width="160" height="130" as="geometry" />
        </mxCell>
        <mxCell id="LinHilYVjCiNJfZ3N-pZ-9" value="Recommendation Service" style="verticalLabelPosition=middle;verticalAlign=middle;html=1;shape=mxgraph.basic.rect;fillColor2=none;strokeWidth=1;size=20;indent=5;labelPosition=center;align=center;whiteSpace=wrap;" vertex="1" parent="1">
          <mxGeometry x="630" y="360" width="120" height="60" as="geometry" />
        </mxCell>
        <mxCell id="LinHilYVjCiNJfZ3N-pZ-13" value="" style="verticalLabelPosition=bottom;html=1;verticalAlign=top;align=center;strokeColor=none;fillColor=#00BEF2;shape=mxgraph.azure.queue_generic;pointerEvents=1;" vertex="1" parent="1">
          <mxGeometry x="-240" y="150" width="160" height="40" as="geometry" />
        </mxCell>
        <mxCell id="LinHilYVjCiNJfZ3N-pZ-14" value="EMAIL SENDING BATCH" style="verticalLabelPosition=middle;verticalAlign=middle;html=1;shape=process;whiteSpace=wrap;rounded=1;size=0.14;arcSize=6;fillColor=#fff2cc;strokeColor=#d6b656;labelPosition=center;align=center;" vertex="1" parent="1">
          <mxGeometry x="-230" y="315" width="100" height="60" as="geometry" />
        </mxCell>
        <mxCell id="LinHilYVjCiNJfZ3N-pZ-15" value="" style="shape=datastore;whiteSpace=wrap;html=1;" vertex="1" parent="1">
          <mxGeometry x="880" y="95" width="60" height="60" as="geometry" />
        </mxCell>
        <mxCell id="LinHilYVjCiNJfZ3N-pZ-16" value="" style="shape=datastore;whiteSpace=wrap;html=1;" vertex="1" parent="1">
          <mxGeometry x="130" y="555" width="60" height="60" as="geometry" />
        </mxCell>
        <mxCell id="LinHilYVjCiNJfZ3N-pZ-24" value="" style="endArrow=classic;html=1;entryX=0.981;entryY=0.446;entryDx=0;entryDy=0;entryPerimeter=0;" edge="1" parent="1" target="LinHilYVjCiNJfZ3N-pZ-2">
          <mxGeometry width="50" height="50" relative="1" as="geometry">
            <mxPoint x="610" y="118" as="sourcePoint" />
            <mxPoint x="270" y="120" as="targetPoint" />
            <Array as="points">
              <mxPoint x="610" y="118" />
            </Array>
          </mxGeometry>
        </mxCell>
        <mxCell id="LinHilYVjCiNJfZ3N-pZ-28" value="&amp;nbsp;Send Customer Data" style="edgeLabel;html=1;align=center;verticalAlign=middle;resizable=0;points=[];" vertex="1" connectable="0" parent="LinHilYVjCiNJfZ3N-pZ-24">
          <mxGeometry x="0.2477" relative="1" as="geometry">
            <mxPoint as="offset" />
          </mxGeometry>
        </mxCell>
        <mxCell id="LinHilYVjCiNJfZ3N-pZ-25" value="" style="endArrow=classic;html=1;entryX=0;entryY=0.25;entryDx=0;entryDy=0;entryPerimeter=0;exitX=1;exitY=0.25;exitDx=0;exitDy=0;exitPerimeter=0;" edge="1" parent="1" source="LinHilYVjCiNJfZ3N-pZ-2" target="LinHilYVjCiNJfZ3N-pZ-4">
          <mxGeometry width="50" height="50" relative="1" as="geometry">
            <mxPoint x="150" y="190" as="sourcePoint" />
            <mxPoint x="200" y="140" as="targetPoint" />
            <Array as="points" />
          </mxGeometry>
        </mxCell>
        <mxCell id="LinHilYVjCiNJfZ3N-pZ-26" value="&amp;nbsp;Get Customer Data" style="edgeLabel;html=1;align=center;verticalAlign=middle;resizable=0;points=[];" vertex="1" connectable="0" parent="LinHilYVjCiNJfZ3N-pZ-25">
          <mxGeometry x="-0.2457" y="-1" relative="1" as="geometry">
            <mxPoint y="1" as="offset" />
          </mxGeometry>
        </mxCell>
        <mxCell id="LinHilYVjCiNJfZ3N-pZ-30" value="" style="endArrow=classic;html=1;exitX=1;exitY=0.25;exitDx=0;exitDy=0;exitPerimeter=0;" edge="1" parent="1">
          <mxGeometry width="50" height="50" relative="1" as="geometry">
            <mxPoint x="260" y="190" as="sourcePoint" />
            <mxPoint x="610" y="372" as="targetPoint" />
            <Array as="points" />
          </mxGeometry>
        </mxCell>
        <mxCell id="LinHilYVjCiNJfZ3N-pZ-32" value="" style="endArrow=classic;html=1;exitX=-0.025;exitY=0.577;exitDx=0;exitDy=0;exitPerimeter=0;entryX=0.75;entryY=1;entryDx=0;entryDy=0;entryPerimeter=0;" edge="1" parent="1" source="LinHilYVjCiNJfZ3N-pZ-8" target="LinHilYVjCiNJfZ3N-pZ-2">
          <mxGeometry width="50" height="50" relative="1" as="geometry">
            <mxPoint x="270" y="200" as="sourcePoint" />
            <mxPoint x="220" y="200" as="targetPoint" />
            <Array as="points" />
          </mxGeometry>
        </mxCell>
        <mxCell id="LinHilYVjCiNJfZ3N-pZ-33" value="Get recommended Products" style="edgeLabel;html=1;align=center;verticalAlign=middle;resizable=0;points=[];" vertex="1" connectable="0" parent="LinHilYVjCiNJfZ3N-pZ-32">
          <mxGeometry x="-0.2457" y="-1" relative="1" as="geometry">
            <mxPoint y="1" as="offset" />
          </mxGeometry>
        </mxCell>
        <mxCell id="LinHilYVjCiNJfZ3N-pZ-34" value="" style="endArrow=classic;html=1;entryX=0.5;entryY=0;entryDx=0;entryDy=0;entryPerimeter=0;exitX=1;exitY=0.25;exitDx=0;exitDy=0;exitPerimeter=0;" edge="1" parent="1" target="LinHilYVjCiNJfZ3N-pZ-6">
          <mxGeometry width="50" height="50" relative="1" as="geometry">
            <mxPoint x="180" y="190" as="sourcePoint" />
            <mxPoint x="530" y="190" as="targetPoint" />
            <Array as="points" />
          </mxGeometry>
        </mxCell>
        <mxCell id="LinHilYVjCiNJfZ3N-pZ-35" value="Generate Promo Code" style="edgeLabel;html=1;align=center;verticalAlign=middle;resizable=0;points=[];" vertex="1" connectable="0" parent="LinHilYVjCiNJfZ3N-pZ-34">
          <mxGeometry x="-0.2457" y="-1" relative="1" as="geometry">
            <mxPoint y="1" as="offset" />
          </mxGeometry>
        </mxCell>
        <mxCell id="LinHilYVjCiNJfZ3N-pZ-42" value="" style="curved=1;endArrow=classic;html=1;exitX=-0.031;exitY=0.377;exitDx=0;exitDy=0;exitPerimeter=0;" edge="1" parent="1" source="LinHilYVjCiNJfZ3N-pZ-6">
          <mxGeometry width="50" height="50" relative="1" as="geometry">
            <mxPoint x="-140" y="240" as="sourcePoint" />
            <mxPoint x="-90" y="190" as="targetPoint" />
            <Array as="points">
              <mxPoint x="100" y="340" />
              <mxPoint x="-140" y="190" />
            </Array>
          </mxGeometry>
        </mxCell>
        <mxCell id="LinHilYVjCiNJfZ3N-pZ-46" value="" style="shape=flexArrow;endArrow=classic;html=1;exitX=0.375;exitY=0.875;exitDx=0;exitDy=0;exitPerimeter=0;" edge="1" parent="1" source="LinHilYVjCiNJfZ3N-pZ-13">
          <mxGeometry width="50" height="50" relative="1" as="geometry">
            <mxPoint x="-170" y="200" as="sourcePoint" />
            <mxPoint x="-180" y="310" as="targetPoint" />
            <Array as="points">
              <mxPoint x="-180" y="220" />
              <mxPoint x="-180" y="260" />
            </Array>
          </mxGeometry>
        </mxCell>
        <mxCell id="LinHilYVjCiNJfZ3N-pZ-52" value="QUEUE" style="text;html=1;align=center;verticalAlign=middle;resizable=0;points=[];autosize=1;strokeColor=none;" vertex="1" parent="1">
          <mxGeometry x="-210" y="120" width="60" height="20" as="geometry" />
        </mxCell>
        <mxCell id="LinHilYVjCiNJfZ3N-pZ-55" value="" style="endArrow=classic;startArrow=classic;html=1;exitX=0.633;exitY=0.017;exitDx=0;exitDy=0;exitPerimeter=0;entryX=0.438;entryY=1;entryDx=0;entryDy=0;entryPerimeter=0;" edge="1" parent="1" source="LinHilYVjCiNJfZ3N-pZ-16" target="LinHilYVjCiNJfZ3N-pZ-6">
          <mxGeometry width="50" height="50" relative="1" as="geometry">
            <mxPoint x="470" y="370" as="sourcePoint" />
            <mxPoint x="168" y="440" as="targetPoint" />
            <Array as="points" />
          </mxGeometry>
        </mxCell>
        <mxCell id="LinHilYVjCiNJfZ3N-pZ-57" value="" style="endArrow=classic;startArrow=classic;html=1;exitX=1;exitY=0.5;exitDx=0;exitDy=0;exitPerimeter=0;" edge="1" parent="1" source="LinHilYVjCiNJfZ3N-pZ-4">
          <mxGeometry width="50" height="50" relative="1" as="geometry">
            <mxPoint x="780" y="226.01999999999998" as="sourcePoint" />
            <mxPoint x="884" y="125" as="targetPoint" />
            <Array as="points" />
          </mxGeometry>
        </mxCell>
        <mxCell id="LinHilYVjCiNJfZ3N-pZ-62" style="edgeStyle=orthogonalEdgeStyle;rounded=0;orthogonalLoop=1;jettySize=auto;html=1;exitX=0;exitY=0.25;exitDx=0;exitDy=0;exitPerimeter=0;entryX=1.006;entryY=0.808;entryDx=0;entryDy=0;entryPerimeter=0;" edge="1" parent="1" source="LinHilYVjCiNJfZ3N-pZ-58" target="LinHilYVjCiNJfZ3N-pZ-6">
          <mxGeometry relative="1" as="geometry" />
        </mxCell>
        <mxCell id="LinHilYVjCiNJfZ3N-pZ-58" value="API GATEWAY" style="verticalLabelPosition=top;verticalAlign=bottom;html=1;shape=mxgraph.basic.patternFillRect;fillStyle=hor;step=5;fillStrokeWidth=0.2;fillStrokeColor=#dddddd;labelPosition=right;align=left;spacing=-27;spacingTop=-8;spacingLeft=-95;fillColor=#d5e8d4;strokeColor=#82b366;" vertex="1" parent="1">
          <mxGeometry x="350" y="420" width="160" height="130" as="geometry" />
        </mxCell>
        <mxCell id="LinHilYVjCiNJfZ3N-pZ-59" value="Login Service" style="verticalLabelPosition=middle;verticalAlign=middle;html=1;shape=mxgraph.basic.rect;fillColor2=none;strokeWidth=1;size=20;indent=5;labelPosition=center;align=center;whiteSpace=wrap;" vertex="1" parent="1">
          <mxGeometry x="370" y="460" width="120" height="60" as="geometry" />
        </mxCell>
      </root>
    </mxGraphModel>
  </diagram>
</mxfile>
